<svg xmlns="http://www.w3.org/2000/svg" viewBox="0 0 18.3333 18.3333" fill="none">
  <g fill="#000000">
    <path fill-rule="evenodd" clip-rule="evenodd" d="M9.16667 6.66667C7.78596 6.66667 6.66667 7.78596 6.66667 9.16667C6.66667 10.5474 7.78596 11.6667 9.16667 11.6667C10.5474 11.6667 11.6667 10.5474 11.6667 9.16667C11.6667 7.78596 10.5474 6.66667 9.16667 6.66667ZM5 9.16667C5 6.86548 6.86548 5 9.16667 5C11.4679 5 13.3333 6.86548 13.3333 9.16667C13.3333 11.4679 11.4679 13.3333 9.16667 13.3333C6.86548 13.3333 5 11.4679 5 9.16667Z"/>
    <path fill-rule="evenodd" clip-rule="evenodd" d="M9.16667 0C9.6269 0 10 0.373096 10 0.833333V2.5C10 2.96024 9.6269 3.33333 9.16667 3.33333C8.70643 3.33333 8.33333 2.96024 8.33333 2.5V0.833333C8.33333 0.373096 8.70643 0 9.16667 0Z"/>
    <path fill-rule="evenodd" clip-rule="evenodd" d="M9.16667 15C9.6269 15 10 15.3731 10 15.8333V17.5C10 17.9602 9.6269 18.3333 9.16667 18.3333C8.70643 18.3333 8.33333 17.9602 8.33333 17.5V15.8333C8.33333 15.3731 8.70643 15 9.16667 15Z"/>
    <path fill-rule="evenodd" clip-rule="evenodd" d="M2.68574 2.68574C3.01118 2.36031 3.53882 2.36031 3.86426 2.68574L5.03926 3.86074C5.36469 4.18618 5.36469 4.71382 5.03926 5.03926C4.71382 5.36469 4.18618 5.36469 3.86074 5.03926L2.68574 3.86426C2.36031 3.53882 2.36031 3.01118 2.68574 2.68574Z"/>
    <path fill-rule="evenodd" clip-rule="evenodd" d="M13.2941 13.2941C13.6195 12.9686 14.1472 12.9686 14.4726 13.2941L15.6476 14.4691C15.973 14.7945 15.973 15.3222 15.6476 15.6476C15.3222 15.973 14.7945 15.973 14.4691 15.6476L13.2941 14.4726C12.9686 14.1472 12.9686 13.6195 13.2941 13.2941Z"/>
    <path fill-rule="evenodd" clip-rule="evenodd" d="M0 9.16667C0 8.70643 0.373096 8.33333 0.833333 8.33333H2.5C2.96024 8.33333 3.33333 8.70643 3.33333 9.16667C3.33333 9.6269 2.96024 10 2.5 10H0.833333C0.373096 10 0 9.6269 0 9.16667Z"/>
    <path fill-rule="evenodd" clip-rule="evenodd" d="M15 9.16667C15 8.70643 15.3731 8.33333 15.8333 8.33333H17.5C17.9602 8.33333 18.3333 8.70643 18.3333 9.16667C18.3333 9.6269 17.9602 10 17.5 10H15.8333C15.3731 10 15 9.6269 15 9.16667Z"/>
    <path fill-rule="evenodd" clip-rule="evenodd" d="M5.03926 13.2941C5.36469 13.6195 5.36469 14.1472 5.03926 14.4726L3.86426 15.6476C3.53882 15.973 3.01118 15.973 2.68574 15.6476C2.36031 15.3222 2.36031 14.7945 2.68574 14.4691L3.86074 13.2941C4.18618 12.9686 4.71382 12.9686 5.03926 13.2941Z"/>
    <path fill-rule="evenodd" clip-rule="evenodd" d="M15.6476 2.68574C15.973 3.01118 15.973 3.53882 15.6476 3.86426L14.4726 5.03926C14.1472 5.36469 13.6195 5.36469 13.2941 5.03926C12.9686 4.71382 12.9686 4.18618 13.2941 3.86074L14.4691 2.68574C14.7945 2.36031 15.3222 2.36031 15.6476 2.68574Z"/>
  </g>
</svg>
