<svg xmlns="http://www.w3.org/2000/svg" viewBox="0 0 18.3449 18.3316" fill="none">
  <g fill="#000000">
    <path fill-rule="evenodd" clip-rule="evenodd" d="M8.73434 0.124459C8.98002 -0.0273803 9.2868 -0.0411836 9.54513 0.0879782L14.5451 2.58798C14.8274 2.72914 15.0058 3.01769 15.0058 3.33333C15.0058 3.64898 14.8274 3.93753 14.5451 4.07869L10.0058 6.34836V9.16667C10.0058 9.62691 9.63269 10 9.17245 10C8.71221 10 8.33911 9.62691 8.33911 9.16667V5.85139C8.33887 5.83977 8.33887 5.82816 8.33911 5.81657V0.833334C8.33911 0.54452 8.48866 0.276297 8.73434 0.124459ZM10.0058 4.48497L12.3091 3.33333L10.0058 2.1817V4.48497Z"/>
    <path fill-rule="evenodd" clip-rule="evenodd" d="M6.56282 8.74517C6.79101 9.14486 6.65198 9.65385 6.25229 9.88203L1.66896 12.4987L1.66667 12.5L1.66942 12.5016L8.75276 16.5516L8.75579 16.5533C8.88247 16.6265 9.02618 16.665 9.17246 16.665C9.31874 16.665 9.46244 16.6265 9.58912 16.5533L9.59216 16.5516L16.6755 12.5016L16.6782 12.5L16.677 12.4993L12.0936 9.89093C11.6936 9.6633 11.5539 9.1545 11.7815 8.7545C12.0092 8.3545 12.518 8.21477 12.918 8.4424L17.5 11.05L17.5008 11.0505C17.757 11.1958 17.97 11.4064 18.1183 11.6609C18.2667 11.9156 18.3449 12.2052 18.3449 12.5C18.3449 12.7948 18.2667 13.0844 18.1183 13.3391C17.9701 13.5933 17.7573 13.8038 17.5015 13.9492L17.5 13.95L10.4225 17.9967L10.4208 17.9977C10.0411 18.2165 9.61065 18.3316 9.17246 18.3316C8.73426 18.3316 8.30378 18.2165 7.92415 17.9977L7.92246 17.9967L0.844914 13.95L0.84339 13.9491C0.58757 13.8038 0.374775 13.5933 0.226638 13.3391C0.0782056 13.0844 0 12.7948 0 12.5C0 12.2052 0.0782056 11.9156 0.226638 11.6609C0.374813 11.4066 0.587678 11.1961 0.843582 11.0508L0.844914 11.05L5.42596 8.43464C5.82564 8.20645 6.33464 8.34548 6.56282 8.74517Z"/>
    <path fill-rule="evenodd" clip-rule="evenodd" d="M3.85735 9.46141C4.08577 9.06186 4.59484 8.92313 4.9944 9.15155L14.1777 14.4015C14.5773 14.63 14.716 15.139 14.4876 15.5386C14.2592 15.9381 13.7501 16.0769 13.3505 15.8485L4.16722 10.5985C3.76766 10.37 3.62893 9.86096 3.85735 9.46141Z"/>
    <path fill-rule="evenodd" clip-rule="evenodd" d="M14.4874 9.46113C14.716 9.86059 14.5775 10.3697 14.178 10.5983L5.00301 15.8483C4.60355 16.0769 4.09442 15.9383 3.86585 15.5389C3.63727 15.1394 3.7758 14.6303 4.17527 14.4017L13.3503 9.15171C13.7497 8.92313 14.2589 9.06166 14.4874 9.46113Z"/>
  </g>
</svg>
